<?xml version="1.0" encoding="utf-8"?>
<!-- Generator: Adobe Illustrator 23.1.0, SVG Export Plug-In . SVG Version: 6.00 Build 0)  -->
<svg version="1.1" id="Ebene_1" xmlns="http://www.w3.org/2000/svg" xmlns:xlink="http://www.w3.org/1999/xlink" x="0px" y="0px"
	 viewBox="0 0 120 54" style="enable-background:new 0 0 120 54;" xml:space="preserve">
<style type="text/css">
	.st0{clip-path:url(#SVGID_2_);fill:#969696;stroke:#181716;stroke-width:0.5;stroke-miterlimit:10;}
	.st1{clip-path:url(#SVGID_2_);fill:#FFFFFF;stroke:#181716;stroke-width:0.5;stroke-miterlimit:10;}
	.st2{clip-path:url(#SVGID_2_);fill:#EBE1BF;stroke:#181716;stroke-width:0.5;stroke-miterlimit:10;}
	.st3{clip-path:url(#SVGID_2_);fill:#5A89B0;stroke:#181716;stroke-width:0.5;stroke-miterlimit:10;}
	.st4{fill:#5A89B0;stroke:#181716;stroke-width:0.5;stroke-miterlimit:10;}
	.st5{fill:none;stroke:#181716;stroke-width:0.5;stroke-miterlimit:10;}
	.st6{fill:#CFD0D0;stroke:#181716;stroke-width:0.5;stroke-miterlimit:10;}
	.st7{fill:#ECECEC;stroke:#181716;stroke-width:0.5;stroke-miterlimit:10;}
</style>
<g>
	<defs>
		<polygon id="SVGID_1_" points="-0.28,0.15 119.72,0.15 120,54 0,54 		"/>
	</defs>
	<clipPath id="SVGID_2_">
		<use xlink:href="#SVGID_1_"  style="overflow:visible;"/>
	</clipPath>
	<path class="st0" d="M38.64,41.23c0,5.75-4.66,10.42-10.42,10.42c-5.75,0-10.42-4.66-10.42-10.42c0-5.75,4.66-10.42,10.42-10.42
		C33.98,30.82,38.64,35.48,38.64,41.23"/>
	<path class="st0" d="M107.43,41.28c0,5.61-4.55,10.16-10.16,10.16s-10.16-4.55-10.16-10.16c0-5.61,4.55-10.16,10.16-10.16
		S107.43,35.67,107.43,41.28"/>
	<path class="st1" d="M34.08,41.28c0,3.37-2.73,6.1-6.1,6.1s-6.1-2.73-6.1-6.1s2.73-6.1,6.1-6.1S34.08,37.92,34.08,41.28"/>
	<path class="st1" d="M103.37,41.28c0,3.37-2.73,6.1-6.1,6.1c-3.37,0-6.1-2.73-6.1-6.1s2.73-6.1,6.1-6.1
		C100.64,35.19,103.37,37.92,103.37,41.28"/>
	<path class="st0" d="M10.36,26.36c0,0,1.71-3.89-1.18-4.4c-2.89-0.52-3.63,0.63-4.26,2.35c-0.63,1.73-3.03,9.4-3.26,11.06
		c0,0-0.77,3.47,1.89,3.48c2.45,0.02,2.73,0.66,3.5-1.52C7.83,35.17,10.36,26.36,10.36,26.36"/>
	<path class="st2" d="M33.5,8.31c-4.45,0.97-6.13,1.1-9.68,7.23c-2.11,3.65-3.46,4.68-4.22,4.93l10.35,0.36c0,0,2.84-8.39,7.35-8.77
		c4.52-0.39,28.19-1.42,33.48,0.06c5.29,1.48,6.71,8.39,6.71,8.39l4.26,0.13l-0.03-0.06c-0.11-0.01-0.18-0.01-0.18-0.01l-3.6-6.53
		l-0.96-1.66c0,0-1.16-4-11.55-4.58c-0.8-0.04-1.64-0.08-2.52-0.12c-3.47-0.12-7.68-0.2-11.83-0.23C43.45,7.45,36.18,7.73,33.5,8.31
		"/>
	<path class="st3" d="M114.93,39.64l-6.24-14.85c0,0,0.24-2.85-8.57-3.29c-8.12-0.4-17.06-0.84-18.4-0.91l0.03,0.06l-4.15-0.13
		c0.01,0.09,0.02,0.17,0.02,0.26l-8.16-0.21l-1.43-8.92c-0.83-0.04-1.72-0.07-2.64-0.1c0.5,1.72,1.1,8.96,1.1,8.96l-16.74,0.07
		l-0.72-9.07c-1.11,0.03-2.19,0.07-3.22,0.11l1.16,9.14l-17.03,0.07c0,0-0.01,0.02-0.01,0.02L19.6,20.47
		c-0.07,0.02-0.14,0.04-0.2,0.05c-0.29,0.14-0.58,0.21-0.86,0.2c-2.27-0.1-6.43-0.87-7.5,2.66S6.25,40.27,6.25,40.27
		s-3.63-0.34-3.63,2.08c0,2.42,3.72,1.69,3.72,1.69l10.6-0.01c-0.22-0.9-0.35-1.83-0.35-2.8c0-6.42,5.2-11.62,11.62-11.62
		c6.42,0,11.62,5.2,11.62,11.62c0,0.96-0.13,1.88-0.35,2.78l46.48-0.04c-0.21-0.86-0.33-1.76-0.33-2.69
		c0-6.42,5.2-11.62,11.62-11.62s11.62,5.2,11.62,11.62c0,0.92-0.12,1.81-0.32,2.67l8.88-0.01
		C117.45,43.94,118.12,39.59,114.93,39.64"/>
	<path class="st0" d="M99.28,41.55c0,1.13-0.91,2.04-2.04,2.04c-1.13,0-2.04-0.91-2.04-2.04s0.91-2.04,2.04-2.04
		C98.36,39.5,99.28,40.42,99.28,41.55"/>
	<path class="st0" d="M30.02,41.4c0,1.13-0.91,2.04-2.04,2.04c-1.13,0-2.04-0.91-2.04-2.04c0-1.13,0.91-2.04,2.04-2.04
		C29.11,39.36,30.02,40.27,30.02,41.4"/>
</g>
<path class="st4" d="M47.1,22.77c0.35,4.17,0.53,16.87,0.88,21.04"/>
<path class="st4" d="M77.91,22.42c0,0-2.2,19.98-15.67,20.07s-14.26,0-14.26,0"/>
<line class="st4" x1="51.01" y1="25.8" x2="53.12" y2="25.8"/>
<path class="st5" d="M6.7,40.2c0,0,5.19-8.8,11.8-11.62c0,0,24.65-8.89,22.98,15.23"/>
<path class="st5" d="M109.14,30.77c0,0-17.5-11.17-28.94,7.58c0,0-1.14,2.11-3.7,5.46"/>
<path class="st6" d="M114.93,39.64l-6.28-15.28c0,0-0.99-1.41-2.83-1.94l6.87,17.25L114.93,39.64z"/>
<path class="st5" d="M5.47-11.2"/>
<path class="st7" d="M6.7,40.2v3.61c0,0-3.48,1.12-4.23-1.28C1.86,40.56,6.7,40.2,6.7,40.2z"/>
<path class="st7" d="M112.68,39.68l2.25-0.04c0,0,2.77-0.06,2.77,4.44h-5.02V39.68z"/>
</svg>
